<?xml version="1.0" encoding="utf-8"?>
<!-- Generator: Adobe Illustrator 16.0.3, SVG Export Plug-In . SVG Version: 6.00 Build 0)  -->
<!DOCTYPE svg PUBLIC "-//W3C//DTD SVG 1.1//EN" "http://www.w3.org/Graphics/SVG/1.1/DTD/svg11.dtd">
<svg version="1.1" id="Layer_1" xmlns="http://www.w3.org/2000/svg" xmlns:xlink="http://www.w3.org/1999/xlink" x="0px" y="0px"
	 width="350px" height="250px" viewBox="0 0 350 250" enable-background="new 0 0 350 250" xml:space="preserve">
<g>
	<path d="M18.592,131H81v9h8.102c0,0,4.87-4,4.023-9H125v9h12.378c0,0,1.482,0.58,2.329-2.384c0.847-2.965,0-6.616,0-6.616H331
		v8.812c0,0-0.446,2.755,3.153,3.812c3.601,1.057,4.847,1.271,4.847,1.271v4.446c0,0,0.083,0.849,3.895,3.176
		c3.812,2.328,4.105,2.328,4.105,2.328V237h-30.49l0.211-6.354c0,0,0.848-4.658-4.657-4.658l-5.929,0.423
		c0,0-2.753,0.212-1.906,3.177S303.594,237,303.594,237H186.925l-0.211-7.201c0,0-0.729-2.964-4.116-2.54
		c-3.388,0.423-5.598-1.271-5.598-1.271v-6.139c0,0,0.093-2.328-3.719-2.541c-3.812-0.214-3.871-0.214-3.871-0.214
		s-3.842-0.421-3.418,2.755c0.424,3.175-0.015,5.715-0.015,5.715l-8.053,0.847c0,0-4.663,1.271-4.239,5.082S153.682,237,153.682,237
		h-22.021l0.317-6.354c0,0-0.143-4.658-6.071-4.235C119.979,226.835,121,226.2,121,226.2v-6.351c0,0,1.852-4.872-4.924-4.872
		S112,215.401,112,215.401v-7.621c0,0,0.197-3.387-4.463-3.177c-4.658,0.211-4.665,0.211-4.665,0.211l-0.143,20.962L92,225.988v7.2
		c0,0-1.84,3.813-5.651,3.812s-52.088,0-52.088,0s-5.082-0.848-5.505-3.813s-0.423-6.353-0.423-6.353l-10.375-0.424l1.482-6.763
		c0,0,0.423-4.648-4.023-4.648C10.97,215,11,215,11,215v-75h4.416c0,0,2.19-0.074,2.541-3.23C18.592,131.054,18.592,131,18.592,131z
		"/>
	<path d="M223.768,14H337v6.391c0,0,0.43,3.686,3.818,3.854c3.387,0.168,3.182,0.168,3.182,0.168V52h-4.623
		c0,0-2.377,3.327-2.377,5.444c0,2.117,0,27.104,0,27.104s-0.523,3.81,2.441,4.656s4.559,0,4.559,0V118H231v-7.408
		c0,0-0.572-3.602-4.383-3.178c-3.811,0.423-8.617,0.423-8.617,0.423V118h-70.458l0.212-8.041c0,0-2.541-2.959-5.082-2.959
		s-9.74,0-9.74,0l0.317,11H27.485l-0.423-6.988c0,0-0.424-3.492-4.658-3.069c-4.235,0.424-4.447,2.488-4.447-4.287
		c0-4.644,1.906-5.531-2.541-5.955c-4.446-0.424-7.078-0.86-7.078-0.86l0.09-25.838c0,0,1.997-2.33,0-5.19
		c-1.996-2.859-1.996-36.316-1.996-36.316l1.361-5.737c0,0,1.906-7.758,10.164-9.758h60.346l1.694,6.371
		c0,0,0.232,1.914,2.985,3.185c2.753,1.27,18.019,0.01,18.019,0.01V14h17.957h2.541H161v10h11.95c0,0,2.329,0.719,3.812-3.729
		c1.481-4.448,0-6.271,0-6.271H206v6.391c0,0,1.051,4.088,3.59,3.843c2.541-0.245,11.816,0.011,11.816,0.011
		s0.458-1.542,2.152-3.873C225.252,18.041,223.768,14,223.768,14z"/>
	<radialGradient id="SVGID_1_" cx="49" cy="60" r="37.1214" gradientUnits="userSpaceOnUse">
		<stop  offset="0" style="stop-color:#FFFFFF"/>
		<stop  offset="0.0851" style="stop-color:#FFEDD8"/>
		<stop  offset="0.2082" style="stop-color:#FFD5A7"/>
		<stop  offset="0.3345" style="stop-color:#FFC17D"/>
		<stop  offset="0.462" style="stop-color:#FFB05B"/>
		<stop  offset="0.591" style="stop-color:#FFA340"/>
		<stop  offset="0.7222" style="stop-color:#FF9A2D"/>
		<stop  offset="0.8568" style="stop-color:#FF9522"/>
		<stop  offset="1" style="stop-color:#FF931E"/>
	</radialGradient>
	<polygon fill="url(#SVGID_1_)" points="25,32 25,20 74,20 74,32 83,32 83,46 62,46 62,33 36,33 36,86 62,86 62,67 54,67 54,53 
		83,53 83,100 71,100 71,90 65,90 65,100 25,100 25,89 15,89 15,32 	"/>
	<radialGradient id="SVGID_2_" cx="132.5" cy="60" r="36.8934" gradientUnits="userSpaceOnUse">
		<stop  offset="0" style="stop-color:#FFFFFF"/>
		<stop  offset="0.0851" style="stop-color:#FFEDD8"/>
		<stop  offset="0.2082" style="stop-color:#FFD5A7"/>
		<stop  offset="0.3345" style="stop-color:#FFC17D"/>
		<stop  offset="0.462" style="stop-color:#FFB05B"/>
		<stop  offset="0.591" style="stop-color:#FFA340"/>
		<stop  offset="0.7222" style="stop-color:#FF9A2D"/>
		<stop  offset="0.8568" style="stop-color:#FF9522"/>
		<stop  offset="1" style="stop-color:#FF931E"/>
	</radialGradient>
	<polygon fill="url(#SVGID_2_)" points="108,20 156,20 156,31 166,31 166,100 145,100 145,78 120,78 120,100 99,100 99,31 108,31 	
		"/>
	<radialGradient id="SVGID_3_" cx="215" cy="60" r="36.6674" gradientUnits="userSpaceOnUse">
		<stop  offset="0" style="stop-color:#FFFFFF"/>
		<stop  offset="0.0851" style="stop-color:#FFEDD8"/>
		<stop  offset="0.2082" style="stop-color:#FFD5A7"/>
		<stop  offset="0.3345" style="stop-color:#FFC17D"/>
		<stop  offset="0.462" style="stop-color:#FFB05B"/>
		<stop  offset="0.591" style="stop-color:#FFA340"/>
		<stop  offset="0.7222" style="stop-color:#FF9A2D"/>
		<stop  offset="0.8568" style="stop-color:#FF9522"/>
		<stop  offset="1" style="stop-color:#FF931E"/>
	</radialGradient>
	<polygon fill="url(#SVGID_3_)" points="182,20 201,20 201,31 210,31 210,43 219,43 219,32 229,32 229,20 248,20 248,100 228,100 
		228,56 221,56 221,66 209,66 209,56 202,56 202,100 182,100 	"/>
	<radialGradient id="SVGID_4_" cx="298" cy="60" r="36.6674" gradientUnits="userSpaceOnUse">
		<stop  offset="0" style="stop-color:#FFFFFF"/>
		<stop  offset="0.0851" style="stop-color:#FFEDD8"/>
		<stop  offset="0.2082" style="stop-color:#FFD5A7"/>
		<stop  offset="0.3345" style="stop-color:#FFC17D"/>
		<stop  offset="0.462" style="stop-color:#FFB05B"/>
		<stop  offset="0.591" style="stop-color:#FFA340"/>
		<stop  offset="0.7222" style="stop-color:#FF9A2D"/>
		<stop  offset="0.8568" style="stop-color:#FF9522"/>
		<stop  offset="1" style="stop-color:#FF931E"/>
	</radialGradient>
	<polygon fill="url(#SVGID_4_)" points="265,20 331,20 331,34 285,34 285,52 321,52 321,66 285,66 285,86 331,86 331,100 265,100 	
		"/>
	<radialGradient id="SVGID_5_" cx="218" cy="180" r="36.6674" gradientUnits="userSpaceOnUse">
		<stop  offset="0" style="stop-color:#FFFFFF"/>
		<stop  offset="0.0851" style="stop-color:#FFEDD8"/>
		<stop  offset="0.2082" style="stop-color:#FFD5A7"/>
		<stop  offset="0.3345" style="stop-color:#FFC17D"/>
		<stop  offset="0.462" style="stop-color:#FFB05B"/>
		<stop  offset="0.591" style="stop-color:#FFA340"/>
		<stop  offset="0.7222" style="stop-color:#FF9A2D"/>
		<stop  offset="0.8568" style="stop-color:#FF9522"/>
		<stop  offset="1" style="stop-color:#FF931E"/>
	</radialGradient>
	<polygon fill="url(#SVGID_5_)" points="185,140 251,140 251,153 205,153 205,172 241,172 241,186 205,186 205,206 251,206 251,220 
		185,220 	"/>
	<radialGradient id="SVGID_6_" cx="50.5" cy="180" r="36.4435" gradientUnits="userSpaceOnUse">
		<stop  offset="0" style="stop-color:#FFFFFF"/>
		<stop  offset="0.0851" style="stop-color:#FFEDD8"/>
		<stop  offset="0.2082" style="stop-color:#FFD5A7"/>
		<stop  offset="0.3345" style="stop-color:#FFC17D"/>
		<stop  offset="0.462" style="stop-color:#FFB05B"/>
		<stop  offset="0.591" style="stop-color:#FFA340"/>
		<stop  offset="0.7222" style="stop-color:#FF9A2D"/>
		<stop  offset="0.8568" style="stop-color:#FF9522"/>
		<stop  offset="1" style="stop-color:#FF931E"/>
	</radialGradient>
	<polygon fill="url(#SVGID_6_)" points="27,140 74,140 74,151 83,151 83,206 75,206 75,220 27,220 27,207 18,207 18,151 27,151 	"/>
	<radialGradient id="SVGID_7_" cx="133.5" cy="178.5" r="35.6265" gradientUnits="userSpaceOnUse">
		<stop  offset="0" style="stop-color:#FFFFFF"/>
		<stop  offset="0.0851" style="stop-color:#FFEDD8"/>
		<stop  offset="0.2082" style="stop-color:#FFD5A7"/>
		<stop  offset="0.3345" style="stop-color:#FFC17D"/>
		<stop  offset="0.462" style="stop-color:#FFB05B"/>
		<stop  offset="0.591" style="stop-color:#FFA340"/>
		<stop  offset="0.7222" style="stop-color:#FF9A2D"/>
		<stop  offset="0.8568" style="stop-color:#FF9522"/>
		<stop  offset="1" style="stop-color:#FF931E"/>
	</radialGradient>
	<polygon fill="url(#SVGID_7_)" points="101,140 120,140 120,183 129,183 129,194 139,194 139,183 147,183 147,140 166,140 166,186 
		158,186 158,194 149,194 149,207 139,207 139,217 128,217 128,207 118,207 118,196 109,196 109,185 101,185 	"/>
	<radialGradient id="SVGID_8_" cx="301" cy="180" r="36.6674" gradientUnits="userSpaceOnUse">
		<stop  offset="0" style="stop-color:#FFFFFF"/>
		<stop  offset="0.0851" style="stop-color:#FFEDD8"/>
		<stop  offset="0.2082" style="stop-color:#FFD5A7"/>
		<stop  offset="0.3345" style="stop-color:#FFC17D"/>
		<stop  offset="0.462" style="stop-color:#FFB05B"/>
		<stop  offset="0.591" style="stop-color:#FFA340"/>
		<stop  offset="0.7222" style="stop-color:#FF9A2D"/>
		<stop  offset="0.8568" style="stop-color:#FF9522"/>
		<stop  offset="1" style="stop-color:#FF931E"/>
	</radialGradient>
	<polygon fill="url(#SVGID_8_)" points="268,140 324,140 324,149 334,149 334,175 324,175 324,182 334,182 334,220 314,220 314,186 
		289,186 289,220 268,220 	"/>
	<rect x="119" y="34" width="26" height="30"/>
	<rect x="38" y="153" width="25" height="52"/>
	<rect x="289" y="153" width="25" height="19"/>
</g>
</svg>
